<svg width="332" height="336" viewBox="0 0 332 336" fill="none" xmlns="http://www.w3.org/2000/svg">
<g clip-path="url(#clip0_1_7)">
<path d="M7.48831 52.2647L163.021 0.448266C164.879 -0.18064 166.82 -0.125953 168.542 0.47561V0.448266L326.124 54.4522C330.005 55.7647 332.355 59.5381 332 63.4483C332.027 63.6397 332.027 63.8584 332.027 64.0772V247.444H332C332 250.616 330.251 253.679 327.217 255.21L170.755 334.753C169.444 335.546 167.886 336.011 166.246 336.011C164.497 336.011 162.884 335.491 161.518 334.616L4.70069 252.776C1.74909 251.218 0.0273296 248.21 0.0273296 245.065H0V60.9053C0 56.503 3.25222 52.8662 7.48831 52.2647ZM41.8963 186.605C41.8963 183.269 44.6019 180.534 47.9634 180.534C51.2977 180.534 54.0306 183.241 54.0306 186.605V211.296C54.0306 211.487 54.0306 211.706 54.0033 211.897C54.0033 212.745 54.1126 213.429 54.3039 213.948C54.3859 214.112 54.4679 214.276 54.6319 214.386L69.7451 221.413C72.7787 222.808 74.0905 226.417 72.6967 229.425C71.3029 232.46 67.7227 233.773 64.6892 232.378L49.2206 225.187C48.9473 225.077 48.674 224.94 48.4007 224.749C45.9137 223.19 44.192 221.085 43.1261 218.487C42.2789 216.409 41.8963 214.112 41.9236 211.651V211.269V186.605H41.8963ZM157.528 312.933V137.55L17.4363 74.003V239.815L157.528 312.933ZM314.564 76.0811L174.964 137.632V313.097L314.564 242.112V76.0811ZM165.672 17.8662L33.1781 62.0264L166.301 122.429L299.423 63.7217L165.672 17.8662Z" fill="#D4D4D4"/>
</g>
<defs>
<clipPath id="clip0_1_7">
<rect width="332" height="336" fill="white"/>
</clipPath>
</defs>
</svg>
